<svg id="Layer_1" data-name="Layer 1" xmlns="http://www.w3.org/2000/svg" xmlns:xlink="http://www.w3.org/1999/xlink" viewBox="0 0 265 280"><defs><style>.cls-1,.cls-2{fill:#fff;}.cls-11,.cls-12,.cls-15,.cls-16,.cls-2,.cls-20,.cls-21,.cls-23,.cls-7{fill-rule:evenodd;}.cls-12,.cls-3{fill:#e6e6e6;}.cls-4{mask:url(#mask);}.cls-5{fill:#46649e;}.cls-6{mask:url(#mask-2-2);}.cls-7{fill:#d0c6ac;}.cls-8{mask:url(#mask-3);}.cls-9{fill:#ffdbb4;}.cls-10{mask:url(#mask-4-2);}.cls-11{fill-opacity:0.1;}.cls-13{mask:url(#mask-5);}.cls-14{fill:#262e33;}.cls-15{fill:#f2f2f2;}.cls-16{fill-opacity:0.7;}.cls-17{mask:url(#mask-6-3);}.cls-18{mask:url(#mask-7);}.cls-19{fill:#ff4f6d;}.cls-20{fill-opacity:0.16;}.cls-21{fill-opacity:0.6;}.cls-22{mask:url(#mask-8);}.cls-23{fill:#28354b;}.cls-24{mask:url(#mask-9);}.cls-25{fill:#4a312c;}.cls-26{filter:url(#react-filter-73);}.cls-27{fill:#252c2f;}</style><mask id="mask" x="13" y="40" width="240" height="240" maskUnits="userSpaceOnUse"><g transform="translate(1)"><g id="mask-2"><circle id="path-1" class="cls-1" cx="132" cy="160" r="120"/></g></g></mask><mask id="mask-2-2" x="1" y="0" width="264" height="280" maskUnits="userSpaceOnUse"><g transform="translate(1)"><g id="mask-4"><path id="path-3" class="cls-2" d="M12,160a120,120,0,0,0,240,0h12V0H0V160Z"/></g></g></mask><mask id="mask-3" x="1" y="36" width="264" height="244" maskUnits="userSpaceOnUse"><g transform="translate(1)"><g id="mask-6"><path id="path-5" class="cls-2" d="M156,180.61V199h4a72,72,0,0,1,72,72v9H32v-9a72,72,0,0,1,72-72h4V180.61a56,56,0,0,1-31.69-44.73A12,12,0,0,1,66,124V110A12,12,0,0,1,76,98.17V92h0a56,56,0,0,1,56-56h0a56,56,0,0,1,56,56v6.17A12,12,0,0,1,198,110v14a12,12,0,0,1-10.31,11.88A56,56,0,0,1,156,180.61Z"/></g></g></mask><mask id="mask-4-2" x="33" y="36" width="200" height="244" maskUnits="userSpaceOnUse"><g transform="translate(1)"><g id="mask-6-2" data-name="mask-6"><path id="path-5-2" data-name="path-5" class="cls-2" d="M156,180.61V199h4a72,72,0,0,1,72,72v9H32v-9a72,72,0,0,1,72-72h4V180.61a56,56,0,0,1-31.69-44.73A12,12,0,0,1,66,124V110A12,12,0,0,1,76,98.17V92h0a56,56,0,0,1,56-56h0a56,56,0,0,1,56,56v6.17A12,12,0,0,1,198,110v14a12,12,0,0,1-10.31,11.88A56,56,0,0,1,156,180.61Z"/></g></g></mask><mask id="mask-5" x="1" y="170" width="264" height="110" maskUnits="userSpaceOnUse"><g transform="translate(1)"><g id="react-mask-115"><path id="react-path-114" class="cls-2" d="M105.19,199.05H104a72,72,0,0,0-72,72V280H232v-8.95a72,72,0,0,0-72-72h-1.19a24.91,24.91,0,0,1,.19,3c0,13.81-12.09,25-27,25s-27-11.19-27-25A24.91,24.91,0,0,1,105.19,199.05Z"/></g></g></mask><mask id="mask-6-3" x="114.11" y="136" width="37.79" height="30" maskUnits="userSpaceOnUse"><g transform="translate(1)"><g id="react-mask-121"><path id="react-path-120" class="cls-2" d="M113.12,149.13a19,19,0,0,0,37.77-.09,2.09,2.09,0,0,0-1.85-2H115.09A2.13,2.13,0,0,0,113.12,149.13Z"/></g></g></mask><mask id="mask-7" x="114.11" y="147" width="37.79" height="33" maskUnits="userSpaceOnUse"><g transform="translate(1)"><g id="react-mask-121-2" data-name="react-mask-121"><path id="react-path-120-2" data-name="react-path-120" class="cls-2" d="M113.12,149.13a19,19,0,0,0,37.77-.09,2.09,2.09,0,0,0-1.85-2H115.09A2.13,2.13,0,0,0,113.12,149.13Z"/></g></g></mask><mask id="mask-8" x="1" y="0" width="264" height="280" maskUnits="userSpaceOnUse"><g transform="translate(1)"><g id="react-mask-58"><rect id="react-path-60" class="cls-1" width="264" height="280"/></g></g></mask><mask id="mask-9" x="0" y="0" width="264" height="280" maskUnits="userSpaceOnUse"><g transform="translate(1)"><g id="react-mask-57"><path id="react-path-59" class="cls-2" d="M93.25,52c.12-.05-.18-.07-.91-.06.89,0,1.19,0,.91.06M85.12,36.3s0,.15,0,0M192.77,70.77a64.36,64.36,0,0,0-1.52-9.86,52.61,52.61,0,0,0-2.49-7.49c-.61-1.48-2-3.52-2.2-5.13s1.07-3.32,1.33-5.16a16,16,0,0,0-.16-5.44c-.83-4-3.59-7.76-7.85-8.81-.95-.23-3,.06-3.64-.5s-1.31-2.8-2-3.67a9,9,0,0,0-8.36-3.51c-2.42.41-1,.91-2.84-.51-1-.79-1.75-2-2.73-2.85a24.89,24.89,0,0,0-4.89-3.28,50.67,50.67,0,0,0-14.85-4.91c-9.28-1.52-19.19-.2-28.19,2.22a75,75,0,0,0-13.15,4.74c-1.78.87-2.81,1.58-4.67,1.81-2.93.36-5.41.34-8.18,1.58C77.83,23.82,74,32.69,77.31,41.18a14.51,14.51,0,0,0,2.82,4.58c1.52,1.68,2.07,1.35.76,3.28a53.09,53.09,0,0,0-5,9.17C72.4,66.61,71.81,76.08,72,85a72.57,72.57,0,0,0,.71,9.42C73,95.8,73,98.33,74,99.33a2,2,0,0,0,2,.58c1.71-.47,1.13-1.73,1.17-2.9.19-5.89-.07-11.09,1.32-16.9a44.63,44.63,0,0,1,5-12,72.35,72.35,0,0,1,9.81-13.35c.92-1,1.12-1.4,2.35-1.48a13.67,13.67,0,0,1,3.2.81c2,.49,4,1,6,1.3a58.49,58.49,0,0,0,11.22.52c7.43-.23,14.88-.75,22.09-2.62,4.78-1.24,9-3.47,13.6-5.11a8.1,8.1,0,0,1,1.43-.81,23.16,23.16,0,0,1,2.26,2.05c2.23,1.74,4.67,2.48,7.07,3.83,3,1.66.09-.72,1.73,1.36a18.25,18.25,0,0,1,1.1,2.41,18.17,18.17,0,0,0,4.93,5.62c2,1.47,4.9,2.18,5.89,4.1.77,1.47,1,3.48,1.65,5.06a102.77,102.77,0,0,0,5.93,11.88c1.73,3.14,3.62,5.89,3.81,9.47.07,1.25-1.12,8.74,1.78,6.46.43-.34,1.35-4.15,1.54-4.8a52.64,52.64,0,0,0,1.4-8.09,74.27,74.27,0,0,0,.47-15.91"/></g></g></mask><filter id="react-filter-73" x="-0.8%" y="-2.4%" width="101.5%" height="109.8%" name="react-filter-73"><feOffset result="shadowOffsetOuter1" dy="2" in="SourceAlpha"/><feColorMatrix result="shadowMatrixOuter1" values="0 0 0 0 0 0 0 0 0 0 0 0 0 0 0 0 0 0 0.2 0" in="shadowOffsetOuter1"/><feMerge><feMergeNode in="shadowMatrixOuter1"/><feMergeNode in="SourceGraphic"/></feMerge></filter></defs><g id="Avataaar"><g id="Avataaar_Circle" data-name="Avataaar/Circle"><g id="Circle"><g id="Circle-Background"><circle id="path-1-2" data-name="path-1" class="cls-3" cx="133" cy="160" r="120"/></g><g class="cls-4"><g id="Color_Palette_Blue-01" data-name="Color/Palette/Blue-01"><rect id="_Color" data-name="ðŸ–Color" class="cls-5" x="13" y="40" width="240" height="240"/></g></g></g><g class="cls-6"><g id="Avataaar-2" data-name="Avataaar"><g id="Body"><path id="path-5-3" data-name="path-5" class="cls-7" d="M156,180.61V199h4a72,72,0,0,1,72,72v9H32v-9a72,72,0,0,1,72-72h4V180.61a56,56,0,0,1-31.69-44.73A12,12,0,0,1,66,124V110A12,12,0,0,1,76,98.17V92h0a56,56,0,0,1,56-56h0a56,56,0,0,1,56,56v6.17A12,12,0,0,1,198,110v14a12,12,0,0,1-10.31,11.88A56,56,0,0,1,156,180.61Z" transform="translate(1)"/><g class="cls-8"><g id="Skin_-03-Brown" data-name="Skin/ðŸ‘¶ðŸ½-03-Brown"><g id="Color"><rect class="cls-9" x="1" y="36" width="264" height="244"/></g></g></g><g class="cls-10"><path id="Neck-Shadow" class="cls-11" d="M188,115v23a56,56,0,0,1-112,0v-8a56,56,0,0,0,112,0Z" transform="translate(1)"/></g></g><g id="Clothing_Collar-_-Sweater" data-name="Clothing/Collar-+-Sweater"><g id="Clothes"><path id="react-path-114-2" data-name="react-path-114" class="cls-12" d="M105.19,199.05H104a72,72,0,0,0-72,72V280H232v-8.95a72,72,0,0,0-72-72h-1.19a24.91,24.91,0,0,1,.19,3c0,13.81-12.09,25-27,25s-27-11.19-27-25A24.91,24.91,0,0,1,105.19,199.05Z" transform="translate(1)"/></g><g class="cls-13"><g id="Color_Palette_Gray-01" data-name="Color/Palette/Gray-01"><rect id="_Color-2" data-name="ðŸ–Color" class="cls-14" x="1" y="170" width="264" height="110"/></g></g><path id="Collar" class="cls-15" d="M156,192.28c6.18,4.56,10,10.83,10,17.75,0,7.2-4.14,13.7-10.77,18.3l-5.65-4.45-4.58.33,1-3.15-.08-.06c6.1-3.15,10.08-8.3,10.08-14.12Zm-48-.71c-6.77,4.6-11,11.17-11,18.46s4.36,14.05,11.31,18.66l6.11-4.81,4.58.33-1-3.15.08-.06C112,217.85,108,212.7,108,206.88Z" transform="translate(1)"/></g><g id="Face"><g id="Mouth_Smile" data-name="Mouth/Smile"><g id="Mouth"><path id="react-path-120-3" data-name="react-path-120" class="cls-16" d="M113.12,149.13a19,19,0,0,0,37.77-.09,2.09,2.09,0,0,0-1.85-2H115.09A2.13,2.13,0,0,0,113.12,149.13Z" transform="translate(1)"/></g><g class="cls-17"><rect id="Teeth" class="cls-1" x="118" y="136" width="31" height="16" rx="5"/></g><g class="cls-18"><g id="Tongue"><circle class="cls-19" cx="128" cy="169" r="11"/><circle class="cls-19" cx="138" cy="169" r="11"/></g></g></g><g id="Nose_Default" data-name="Nose/Default"><path id="Nose" class="cls-20" d="M120,130c0,4.42,5.37,8,12,8h0c6.63,0,12-3.58,12-8" transform="translate(1)"/></g><g id="Eyes_Happy-_" data-name="Eyes/Happy-ðŸ˜"><path id="Squint" class="cls-21" d="M92.16,112.45a12.34,12.34,0,0,1,21.66,0c.55,1.12-.24,2-1,1.36a15.72,15.72,0,0,0-19.35-.2C92.55,114.3,91.62,113.56,92.16,112.45Z" transform="translate(1)"/><path id="Squint-2" data-name="Squint" class="cls-21" d="M150.16,112.45a12.34,12.34,0,0,1,21.66,0c.55,1.12-.24,2-1,1.36a15.72,15.72,0,0,0-19.35-.2C150.55,114.3,149.62,113.56,150.16,112.45Z" transform="translate(1)"/></g><g id="Eyebrow_Natural_Default-Natural" data-name="Eyebrow/Natural/Default-Natural"><path id="Eyebrow" class="cls-21" d="M102.55,88.15c-5.81.27-15.2,4.49-15,10.34a.25.25,0,0,0,.43.13c2.76-3,22.32-6,29.21-4.36.63.14,1.11-.48.71-.93-3.43-3.85-10.19-5.43-15.39-5.18" transform="translate(1)"/><path id="Eyebrow-2" data-name="Eyebrow" class="cls-21" d="M162.45,88.15c5.81.27,15.2,4.49,15,10.34a.25.25,0,0,1-.43.13c-2.76-3-22.32-6-29.21-4.36-.63.14-1.11-.48-.71-.93,3.43-3.85,10.19-5.43,15.39-5.18" transform="translate(1)"/></g></g><g id="Top"><g class="cls-22"><g id="Top_Short-Hair_Short-Curly" data-name="Top/Short-Hair/Short-Curly"><g id="Short-Hair"><path id="react-path-59-2" data-name="react-path-59" class="cls-23" d="M93.25,52c.12-.05-.18-.07-.91-.06.89,0,1.19,0,.91.06M85.12,36.3s0,.15,0,0M192.77,70.77a64.36,64.36,0,0,0-1.52-9.86,52.61,52.61,0,0,0-2.49-7.49c-.61-1.48-2-3.52-2.2-5.13s1.07-3.32,1.33-5.16a16,16,0,0,0-.16-5.44c-.83-4-3.59-7.76-7.85-8.81-.95-.23-3,.06-3.64-.5s-1.31-2.8-2-3.67a9,9,0,0,0-8.36-3.51c-2.42.41-1,.91-2.84-.51-1-.79-1.75-2-2.73-2.85a24.89,24.89,0,0,0-4.89-3.28,50.67,50.67,0,0,0-14.85-4.91c-9.28-1.52-19.19-.2-28.19,2.22a75,75,0,0,0-13.15,4.74c-1.78.87-2.81,1.58-4.67,1.81-2.93.36-5.41.34-8.18,1.58C77.83,23.82,74,32.69,77.31,41.18a14.51,14.51,0,0,0,2.82,4.58c1.52,1.68,2.07,1.35.76,3.28a53.09,53.09,0,0,0-5,9.17C72.4,66.61,71.81,76.08,72,85a72.57,72.57,0,0,0,.71,9.42C73,95.8,73,98.33,74,99.33a2,2,0,0,0,2,.58c1.71-.47,1.13-1.73,1.17-2.9.19-5.89-.07-11.09,1.32-16.9a44.63,44.63,0,0,1,5-12,72.35,72.35,0,0,1,9.81-13.35c.92-1,1.12-1.4,2.35-1.48a13.67,13.67,0,0,1,3.2.81c2,.49,4,1,6,1.3a58.49,58.49,0,0,0,11.22.52c7.43-.23,14.88-.75,22.09-2.62,4.78-1.24,9-3.47,13.6-5.11a8.1,8.1,0,0,1,1.43-.81,23.16,23.16,0,0,1,2.26,2.05c2.23,1.74,4.67,2.48,7.07,3.83,3,1.66.09-.72,1.73,1.36a18.25,18.25,0,0,1,1.1,2.41,18.17,18.17,0,0,0,4.93,5.62c2,1.47,4.9,2.18,5.89,4.1.77,1.47,1,3.48,1.65,5.06a102.77,102.77,0,0,0,5.93,11.88c1.73,3.14,3.62,5.89,3.81,9.47.07,1.25-1.12,8.74,1.78,6.46.43-.34,1.35-4.15,1.54-4.8a52.64,52.64,0,0,0,1.4-8.09,74.27,74.27,0,0,0,.47-15.91" transform="translate(1)"/></g><g class="cls-24"><g id="Skin_-03-Brown-2" data-name="Skin/ðŸ‘¶ðŸ½-03-Brown"><g id="Color-2" data-name="Color"><rect class="cls-25" width="264" height="280"/></g></g></g><g id="Top__Resources_Prescription-02" data-name="Top/_Resources/Prescription-02"><g id="Wayfarers" class="cls-26"><path id="Left" class="cls-27" d="M101,133H98.24C84.31,133,76,125.34,76,112.5,76,102.13,77.82,92,99.53,92h2.94C124.18,92,126,102.13,126,112.5,126,124.57,115.72,133,101,133ZM99.39,98C80,98,80,104.84,80,113.5c0,7.07,3.12,15.5,18,15.5h3c12.36,0,21-6.37,21-15.5,0-8.66,0-15.5-19.39-15.5Z" transform="translate(1)"/><path id="Right" class="cls-27" d="M163,133h-2.76c-13.93,0-22.24-7.66-22.24-20.5,0-10.37,1.82-20.5,23.53-20.5h2.94C186.18,92,188,102.13,188,112.5,188,124.57,177.72,133,163,133Zm-1.61-35C142,98,142,104.84,142,113.5c0,7.07,3.12,15.5,18,15.5h3c12.36,0,21-6.37,21-15.5,0-8.66,0-15.5-19.39-15.5Z" transform="translate(1)"/><path id="Stuff" class="cls-27" d="M70,97.77C70.65,97.1,78.21,92,99.5,92c17.85,0,21.63,1.85,27.35,4.65l.42.21a17.16,17.16,0,0,0,4.81.91,17.13,17.13,0,0,0,4.56-.87c6.53-3.18,12.92-4.9,27.86-4.9,21.29,0,28.85,5.1,29.55,5.77a2.92,2.92,0,0,1,2.95,2.89v2.88a2.92,2.92,0,0,1-2.95,2.89s-6.91,0-6.91,2.88-2-4.17-2-5.77v-2.81a52.76,52.76,0,0,0-20.68-3.94c-11.84,0-17.74,2.1-22.8,4.18l.06.14v2l-2.22,5.35-2.74-1.08a12,12,0,0,0-1.5-.45,14,14,0,0,0-6-.28,7.65,7.65,0,0,0-1.89.64l-2.64,1.29-2.64-5.16.11-2.3.08-.19c-4.36-2-8.38-4.12-22.82-4.12a52.76,52.76,0,0,0-20.68,3.94v2.81c0,1.6-3,8.66-3,5.77S70,106.43,70,106.43a2.92,2.92,0,0,1-3-2.89v-2.88A2.92,2.92,0,0,1,70,97.77Z" transform="translate(1)"/></g></g></g></g></g></g></g></g></g></svg>